<svg width="640" height="640" xmlns="http://www.w3.org/2000/svg" clip-rule="evenodd" fill-rule="evenodd" image-rendering="optimizeQuality" text-rendering="geometricPrecision" shape-rendering="geometricPrecision">

 <g>
  <title>Layer 1</title>
  <path fill="#ffffff" id="svg_1" d="m326.331,274.255l0,109.761l181.49,0c-7.37,47.115 -54.886,138.002 -181.49,138.002c-109.242,0 -198.369,-90.485 -198.369,-202.006c0,-111.509 89.127,-201.995 198.369,-201.995c62.127,0 103.761,26.516 127.525,49.359l86.883,-83.635c-55.749,-52.229 -127.998,-83.753 -214.361,-83.753c-176.884,0 -320.012,143.128 -320.012,320.012c0,176.884 143.128,320.012 320.012,320.012c184.644,0 307.256,-129.876 307.256,-312.653c0,-21 -2.244,-36.993 -5.008,-52.997l-302.248,-0.13l-0.047,0.024l0,-0.001z"/>
 </g>
</svg>